<svg width="72" height="75" viewBox="0 0 72 75" fill="none" xmlns="http://www.w3.org/2000/svg">
<path d="M38.1651 3.75C37.7185 2.9765 36.8932 2.5 36 2.5C35.1068 2.5 34.2815 2.9765 33.8349 3.75L3.52405 56.25C3.07747 57.0235 3.07747 57.9765 3.52405 58.75C3.97063 59.5235 4.79595 60 5.68911 60H66.3109C67.2041 60 68.0294 59.5235 68.476 58.75C68.9225 57.9765 68.9225 57.0235 68.476 56.25L38.1651 3.75Z" fill="#F4E261" stroke="#F4E261" stroke-width="5" stroke-linejoin="round"/>
<path d="M35.5017 42.0576C35.5322 42.5867 35.9701 43 36.5 43C37.0299 43 37.4678 42.5867 37.4983 42.0576L38.7974 19.5576C38.8132 19.2829 38.7152 19.0137 38.5262 18.8136C38.3373 18.6134 38.0743 18.5 37.799 18.5H35.201C34.9257 18.5 34.6627 18.6134 34.4738 18.8136C34.2848 19.0137 34.1868 19.2829 34.2026 19.5576L35.5017 42.0576Z" fill="#595959" stroke="#595959" stroke-width="2" stroke-linejoin="round"/>
<path d="M39 50.5C39 51.8807 37.8807 53 36.5 53C35.1193 53 34 51.8807 34 50.5C34 49.1193 35.1193 48 36.5 48C37.8807 48 39 49.1193 39 50.5Z" fill="#595959"/>
</svg>
